<?xml version="1.0" standalone="no"?>
<!DOCTYPE svg PUBLIC "-//W3C//DTD SVG 20010904//EN"
 "http://www.w3.org/TR/2001/REC-SVG-20010904/DTD/svg10.dtd">
<svg version="1.0" xmlns="http://www.w3.org/2000/svg"
 width="796.000000pt" height="558.000000pt" viewBox="0 0 796.000000 558.000000"
 preserveAspectRatio="xMidYMid meet">
<metadata>
Created by potrace 1.15, written by Peter Selinger 2001-2017
</metadata>
<g transform="translate(0.000000,558.000000) scale(0.100000,-0.100000)"
fill="#000000" stroke="none">
<path d="M3668 4888 c-69 -274 -244 -544 -434 -668 -74 -48 -269 -133 -382
-166 -36 -10 -61 -23 -58 -29 6 -16 1117 -1349 1128 -1353 30 -12 299 124 458
231 111 75 246 217 335 349 81 122 152 278 138 302 -4 6 -225 281 -492 611
-267 330 -523 647 -569 705 -46 58 -87 108 -91 113 -4 4 -19 -39 -33 -95z"/>
<path d="M3974 4796 l-31 -42 485 -599 485 -598 -18 -56 c-68 -216 -302 -513
-518 -655 -88 -59 -315 -178 -394 -208 -38 -14 -43 -20 -43 -47 0 -17 1 -31 3
-31 2 0 39 13 83 29 155 57 323 138 464 224 220 134 526 425 679 645 27 39 40
19 -154 239 -228 257 -484 548 -749 852 -137 157 -252 287 -255 288 -3 1 -20
-17 -37 -41z"/>
<path d="M2760 3781 l0 -204 37 -46 c20 -25 105 -129 188 -231 83 -102 312
-383 509 -625 198 -242 367 -449 377 -460 19 -19 19 -14 19 197 l0 217 -227
273 c-125 150 -373 449 -552 663 -178 215 -330 397 -337 405 -12 12 -14 -16
-14 -189z"/>
<path d="M4925 3122 c-255 -250 -384 -348 -595 -453 -72 -36 -290 -125 -355
-146 -19 -6 -31 -17 -33 -31 -2 -12 -1 -22 2 -22 3 0 56 16 118 36 231 74 446
157 561 215 212 107 455 266 572 374 l60 55 -75 70 c-41 38 -77 70 -80 70 -3
-1 -82 -76 -175 -168z"/>
<path d="M5022 2905 c-130 -93 -375 -231 -513 -288 -80 -34 -409 -148 -556
-193 -7 -2 -13 -10 -13 -19 0 -18 -1 -18 36 -6 16 5 76 24 134 41 405 123 612
209 911 379 180 104 180 103 149 136 -13 14 -28 25 -34 24 -6 -1 -57 -34 -114
-74z"/>
<path d="M5085 2789 c-231 -130 -396 -198 -872 -359 l-273 -93 0 -73 0 -73 98
35 c53 19 333 119 622 222 l525 188 3 102 c1 56 -1 102 -5 102 -4 -1 -48 -24
-98 -51z"/>
<path d="M1889 1787 c-103 -29 -171 -88 -218 -187 -23 -49 -26 -68 -26 -165 0
-105 2 -114 33 -177 36 -73 82 -119 159 -158 42 -22 61 -25 153 -25 123 0 170
17 244 85 143 132 145 418 4 545 -88 80 -234 114 -349 82z m188 -143 c91 -44
135 -204 88 -322 -63 -155 -272 -159 -342 -5 -22 48 -25 65 -21 133 6 99 37
158 100 189 52 25 126 27 175 5z"/>
<path d="M2699 1787 c-102 -29 -175 -93 -222 -194 -18 -40 -22 -65 -22 -158 0
-100 3 -116 29 -173 33 -70 90 -127 164 -164 40 -20 62 -23 152 -23 86 0 113
4 152 22 66 30 129 92 164 160 27 55 29 65 29 178 0 139 -14 182 -84 258 -80
87 -240 128 -362 94z m191 -147 c76 -39 118 -145 100 -253 -16 -98 -62 -156
-142 -178 -130 -34 -238 67 -238 224 0 103 42 180 115 213 45 20 120 17 165
-6z"/>
<path d="M4245 1776 c-109 -50 -154 -166 -106 -272 25 -54 65 -83 184 -135
103 -44 134 -72 122 -109 -10 -32 -63 -60 -116 -60 -46 0 -150 30 -176 51 -19
16 -20 13 -28 -63 -7 -66 -7 -66 21 -81 110 -56 307 -46 385 20 95 80 89 253
-11 319 -20 13 -75 40 -121 60 -99 42 -119 58 -119 95 0 45 34 69 98 69 56 0
127 -16 150 -33 20 -16 30 2 38 70 l6 62 -53 15 c-83 25 -212 21 -274 -8z"/>
<path d="M5150 1791 l-55 -6 -62 -243 c-33 -134 -63 -246 -66 -248 -2 -2 -16
46 -31 108 -14 62 -41 174 -59 248 l-33 135 -82 3 c-45 2 -82 0 -82 -3 0 -4
96 -377 171 -667 l10 -38 92 0 92 0 68 268 c66 258 73 280 80 271 2 -2 33
-123 70 -269 l65 -265 94 0 93 0 52 190 c29 105 68 249 88 320 19 72 39 145
44 163 l10 32 -78 0 -77 0 -17 -72 c-82 -348 -100 -424 -106 -430 -4 -4 -36
109 -71 252 l-64 260 -46 -2 c-25 -1 -70 -4 -100 -7z"/>
<path d="M1060 1435 l0 -355 138 0 c160 0 223 14 279 63 97 85 95 240 -3 293
l-34 18 29 31 c41 43 51 67 51 120 0 88 -48 150 -135 174 -22 6 -104 11 -182
11 l-143 0 0 -355z m290 215 c13 -13 20 -33 20 -58 0 -55 -32 -82 -104 -89
l-56 -6 0 87 0 86 60 0 c47 0 64 -4 80 -20z m25 -295 c43 -42 27 -114 -32
-144 -12 -6 -47 -11 -77 -11 l-56 0 0 90 0 90 70 0 c62 0 74 -3 95 -25z"/>
<path d="M3272 1438 l3 -353 77 -3 77 -3 3 141 3 141 103 -140 103 -141 90 0
c49 0 89 3 89 8 0 4 -60 88 -134 187 -132 176 -134 180 -116 200 9 11 75 85
145 165 l127 145 -88 3 -89 3 -35 -38 c-19 -21 -71 -81 -115 -133 l-80 -95 -3
133 -3 132 -79 0 -80 0 2 -352z"/>
<path d="M5941 1768 c-4 -13 -60 -165 -124 -338 -64 -173 -119 -323 -122 -332
-6 -16 1 -18 71 -18 l79 0 28 80 28 80 144 0 143 0 6 -25 c4 -14 16 -50 27
-80 l20 -55 81 0 c72 0 79 2 73 18 -3 9 -63 169 -132 355 l-126 337 -94 0
c-88 0 -94 -1 -102 -22z m148 -256 c22 -66 41 -122 41 -125 0 -4 -41 -7 -91
-7 -69 0 -90 3 -87 13 3 6 22 63 43 125 22 61 42 112 46 112 3 0 25 -53 48
-118z"/>
<path d="M6482 1438 l3 -353 73 -3 72 -3 0 125 0 124 73 7 c138 14 212 66 243
171 36 124 -26 241 -145 274 -20 5 -100 10 -179 10 l-142 0 2 -352z m261 221
c51 -14 75 -64 58 -119 -16 -55 -42 -73 -111 -78 l-60 -4 0 99 c0 55 3 103 7
106 10 10 63 8 106 -4z"/>
</g>
</svg>
